<svg width="378" height="347" viewBox="0 0 378 347" fill="none" xmlns="http://www.w3.org/2000/svg">
<path d="M184.04 255.444C184.485 255.444 184.931 255.488 185.366 255.575C185.617 255.626 185.802 255.844 185.812 256.1C185.821 256.355 185.656 256.586 185.41 256.656C182.499 257.491 180.543 259.97 180.543 262.826C180.543 263.807 180.772 264.75 181.223 265.627C181.338 265.852 181.286 266.127 181.098 266.296C180.993 266.389 180.859 266.435 180.726 266.435C180.619 266.435 180.513 266.404 180.42 266.342C178.727 265.221 177.715 263.385 177.715 261.431C177.716 258.129 180.553 255.444 184.04 255.444Z" fill="black"/>
<path fill-rule="evenodd" clip-rule="evenodd" d="M190.698 250.727C219.14 176.792 298.592 133.304 378 151.88L370.642 183.233C352.15 262.019 278.633 313.608 200.2 306.977C200.352 306.626 200.513 306.279 200.689 305.939C201.137 305.077 201.635 304.329 202.207 303.649C202.937 302.782 204.934 300.704 206.866 298.697C208.852 296.634 210.728 294.685 211.403 293.879C211.777 293.431 212.092 292.959 212.362 292.437C213.014 291.182 213.151 289.537 213.284 287.949C213.327 287.43 213.368 286.94 213.426 286.472L214.564 272.138C214.643 270.477 214.047 270.065 213.686 269.967C212.937 269.767 211.932 270.513 211.296 271.739C211.119 272.081 210.977 272.447 210.875 272.826C210.415 274.54 208.245 283.563 208.209 283.715L208.165 283.893L208.34 283.846C209.521 283.521 210.437 283.667 210.919 284.258C211.6 285.097 211.38 286.707 210.301 288.79C209.36 290.603 207.834 292.671 205.754 294.943C205.947 294.64 206.136 294.338 206.325 294.042C207.5 292.201 208.611 290.463 209.377 288.987C210.521 286.779 210.724 285.483 210.036 284.788C209.563 284.311 208.932 284.325 208.16 284.829C207.308 285.385 206.039 286.844 204.813 288.255C203.973 289.221 203.18 290.134 202.557 290.717C200.347 292.789 198.061 294.933 196.396 298.143C196.142 298.632 195.907 299.141 195.696 299.655C194.824 301.787 194.049 303.958 193.331 306.25C191.979 306.078 190.625 305.885 189.271 305.677C188.603 303.595 187.883 301.609 187.083 299.655C186.873 299.141 186.637 298.63 186.383 298.14C184.719 294.931 182.433 292.789 180.223 290.717C179.6 290.134 178.807 289.221 177.967 288.255C176.74 286.844 175.472 285.385 174.62 284.829C173.848 284.325 173.217 284.311 172.744 284.788C172.055 285.483 172.258 286.778 173.403 288.987C174.168 290.463 175.28 292.202 176.455 294.042C176.643 294.338 176.833 294.64 177.026 294.943C174.945 292.671 173.419 290.603 172.479 288.79C171.399 286.707 171.18 285.097 171.861 284.258C172.342 283.667 173.257 283.519 174.437 283.843L174.614 283.893L174.571 283.715C174.536 283.569 172.365 274.541 171.905 272.826C171.803 272.446 171.661 272.081 171.484 271.739C170.848 270.513 169.843 269.767 169.094 269.967C168.732 270.065 168.138 270.477 168.216 272.138L169.354 286.472C169.412 286.94 169.452 287.43 169.496 287.949C169.628 289.537 169.766 291.182 170.417 292.437C170.688 292.959 171.003 293.431 171.377 293.879C172.052 294.686 173.925 296.635 175.911 298.697C177.844 300.705 179.843 302.782 180.573 303.649C181.145 304.329 181.643 305.077 182.09 305.939C182.103 305.965 182.113 305.993 182.126 306.018C104.015 314.86 29.1196 265.509 8.29609 187.394L0 156.273C79.2631 135.213 160.452 176.896 190.698 250.727ZM197.567 252.264C195.293 252.264 193.145 253.009 191.39 254.385C189.635 253.009 187.487 252.264 185.213 252.264C179.68 252.264 175.178 256.759 175.178 262.283C175.178 269.495 180.495 273.06 184.767 275.924C187.168 277.534 189.437 279.056 190.001 280.77C190.199 281.37 190.759 281.774 191.39 281.774C191.4 281.774 191.411 281.774 191.42 281.774C192.062 281.761 192.622 281.331 192.798 280.715C193.269 279.064 195.538 277.543 197.941 275.935C202.245 273.055 207.602 269.471 207.602 262.283C207.602 256.759 203.099 252.264 197.567 252.264Z" fill="black"/>
<path d="M190.386 0C253.371 62.8818 253.371 164.835 190.386 227.717C127.401 164.835 127.401 62.8819 190.386 0Z" fill="black"/>
<path d="M31.5716 325.106V346.631H26.736V344.017C25.2576 346.006 23.081 347 20.2064 347C17.6602 347 15.6685 346.201 14.2312 344.602C12.8144 342.982 12.106 340.686 12.106 337.714V325.106H17.0956V337.56C17.0956 339.282 17.496 340.584 18.2968 341.465C19.1181 342.326 20.2269 342.757 21.6232 342.757C23.1221 342.757 24.3233 342.295 25.2268 341.373C26.1302 340.43 26.582 339.046 26.582 337.222V325.106H31.5716Z" fill="black"/>
<path d="M40.9345 332.271C41.5095 331.471 42.2795 330.867 43.2445 330.457C44.2301 330.047 45.3595 329.842 46.6325 329.842V334.27C46.0987 334.229 45.7393 334.208 45.5545 334.208C44.1788 334.208 43.1008 334.598 42.3205 335.377C41.5403 336.135 41.1501 337.283 41.1501 338.821V346.631H36.3453V330.088H40.9345V332.271Z" fill="black"/>
<path d="M66.3034 330.088V346.631H61.745V344.663C61.1085 345.381 60.3487 345.934 59.4658 346.324C58.5829 346.693 57.6281 346.877 56.6014 346.877C54.4249 346.877 52.7001 346.252 51.427 345.001C50.1539 343.751 49.5174 341.896 49.5174 339.436V330.088H54.3222V338.728C54.3222 341.393 55.4413 342.726 57.6794 342.726C58.8293 342.726 59.7533 342.357 60.4514 341.619C61.1495 340.86 61.4986 339.743 61.4986 338.267V330.088H66.3034Z" fill="black"/>
<path d="M77.8695 340.143L75.5595 342.418V346.631H70.7547V323.815H75.5595V336.73L82.5819 330.088H88.3107L81.4115 337.099L88.9267 346.631H83.1055L77.8695 340.143Z" fill="black"/>
<path d="M107.48 330.088V346.631H102.922V344.663C102.285 345.381 101.526 345.934 100.643 346.324C99.7598 346.693 98.805 346.877 97.7783 346.877C95.6018 346.877 93.877 346.252 92.6039 345.001C91.3309 343.751 90.6943 341.896 90.6943 339.436V330.088H95.4991V338.728C95.4991 341.393 96.6182 342.726 98.8563 342.726C100.006 342.726 100.93 342.357 101.628 341.619C102.326 340.86 102.676 339.743 102.676 338.267V330.088H107.48Z" fill="black"/>
<path d="M122.003 329.842C124.057 329.842 125.71 330.457 126.962 331.687C128.235 332.917 128.872 334.741 128.872 337.16V346.631H124.067V337.898C124.067 336.586 123.779 335.612 123.204 334.977C122.63 334.321 121.798 333.993 120.71 333.993C119.498 333.993 118.533 334.372 117.814 335.131C117.096 335.869 116.736 336.976 116.736 338.452V346.631H111.932V330.088H116.521V332.025C117.157 331.328 117.948 330.795 118.892 330.426C119.837 330.037 120.874 329.842 122.003 329.842Z" fill="black"/>
<path d="M150.286 323.815V346.631H145.697V344.725C144.506 346.16 142.781 346.877 140.522 346.877C138.962 346.877 137.545 346.529 136.272 345.832C135.019 345.135 134.034 344.14 133.315 342.849C132.596 341.557 132.237 340.061 132.237 338.359C132.237 336.658 132.596 335.161 133.315 333.87C134.034 332.578 135.019 331.584 136.272 330.887C137.545 330.19 138.962 329.842 140.522 329.842C142.637 329.842 144.29 330.508 145.481 331.84V323.815H150.286ZM141.354 342.941C142.565 342.941 143.571 342.531 144.372 341.711C145.173 340.871 145.573 339.753 145.573 338.359C145.573 336.965 145.173 335.858 144.372 335.038C143.571 334.198 142.565 333.778 141.354 333.778C140.122 333.778 139.105 334.198 138.305 335.038C137.504 335.858 137.103 336.965 137.103 338.359C137.103 339.753 137.504 340.871 138.305 341.711C139.105 342.531 140.122 342.941 141.354 342.941Z" fill="black"/>
<path d="M162.618 346.877C160.872 346.877 159.301 346.518 157.905 345.801C156.529 345.063 155.451 344.048 154.671 342.757C153.891 341.465 153.501 339.999 153.501 338.359C153.501 336.719 153.891 335.254 154.671 333.962C155.451 332.671 156.529 331.666 157.905 330.949C159.301 330.211 160.872 329.842 162.618 329.842C164.363 329.842 165.923 330.211 167.299 330.949C168.675 331.666 169.753 332.671 170.533 333.962C171.314 335.254 171.704 336.719 171.704 338.359C171.704 339.999 171.314 341.465 170.533 342.757C169.753 344.048 168.675 345.063 167.299 345.801C165.923 346.518 164.363 346.877 162.618 346.877ZM162.618 342.941C163.85 342.941 164.856 342.531 165.636 341.711C166.437 340.871 166.837 339.753 166.837 338.359C166.837 336.965 166.437 335.858 165.636 335.038C164.856 334.198 163.85 333.778 162.618 333.778C161.386 333.778 160.369 334.198 159.568 335.038C158.768 335.858 158.367 336.965 158.367 338.359C158.367 339.753 158.768 340.871 159.568 341.711C160.369 342.531 161.386 342.941 162.618 342.941Z" fill="black"/>
<path d="M194.018 328.981C192.293 328.981 190.989 329.36 190.106 330.119C189.223 330.857 188.782 331.974 188.782 333.47V334.792H197.652V338.79H188.782V346.631H183.792V333.501C183.792 330.734 184.654 328.581 186.379 327.044C188.124 325.506 190.558 324.737 193.679 324.737C194.911 324.737 196.071 324.871 197.159 325.137C198.247 325.383 199.192 325.752 199.993 326.244L198.453 330.18C197.221 329.381 195.742 328.981 194.018 328.981Z" fill="black"/>
<path d="M209.54 346.877C207.794 346.877 206.223 346.518 204.827 345.801C203.451 345.063 202.373 344.048 201.593 342.757C200.813 341.465 200.423 339.999 200.423 338.359C200.423 336.719 200.813 335.254 201.593 333.962C202.373 332.671 203.451 331.666 204.827 330.949C206.223 330.211 207.794 329.842 209.54 329.842C211.285 329.842 212.845 330.211 214.221 330.949C215.597 331.666 216.675 332.671 217.455 333.962C218.235 335.254 218.625 336.719 218.625 338.359C218.625 339.999 218.235 341.465 217.455 342.757C216.675 344.048 215.597 345.063 214.221 345.801C212.845 346.518 211.285 346.877 209.54 346.877ZM209.54 342.941C210.772 342.941 211.778 342.531 212.558 341.711C213.359 340.871 213.759 339.753 213.759 338.359C213.759 336.965 213.359 335.858 212.558 335.038C211.778 334.198 210.772 333.778 209.54 333.778C208.308 333.778 207.291 334.198 206.49 335.038C205.689 335.858 205.289 336.965 205.289 338.359C205.289 339.753 205.689 340.871 206.49 341.711C207.291 342.531 208.308 342.941 209.54 342.941Z" fill="black"/>
<path d="M238.531 330.088V346.631H233.972V344.663C233.336 345.381 232.576 345.934 231.693 346.324C230.81 346.693 229.855 346.877 228.829 346.877C226.652 346.877 224.927 346.252 223.654 345.001C222.381 343.751 221.745 341.896 221.745 339.436V330.088H226.55V338.728C226.55 341.393 227.669 342.726 229.907 342.726C231.057 342.726 231.981 342.357 232.679 341.619C233.377 340.86 233.726 339.743 233.726 338.267V330.088H238.531Z" fill="black"/>
<path d="M253.054 329.842C255.107 329.842 256.76 330.457 258.012 331.687C259.286 332.917 259.922 334.741 259.922 337.16V346.631H255.117V337.898C255.117 336.586 254.83 335.612 254.255 334.977C253.68 334.321 252.848 333.993 251.76 333.993C250.549 333.993 249.584 334.372 248.865 335.131C248.146 335.869 247.787 336.976 247.787 338.452V346.631H242.982V330.088H247.571V332.025C248.208 331.328 248.998 330.795 249.943 330.426C250.887 330.037 251.924 329.842 253.054 329.842Z" fill="black"/>
<path d="M281.336 323.815V346.631H276.747V344.725C275.556 346.16 273.831 346.877 271.573 346.877C270.012 346.877 268.595 346.529 267.322 345.832C266.07 345.135 265.084 344.14 264.365 342.849C263.647 341.557 263.287 340.061 263.287 338.359C263.287 336.658 263.647 335.161 264.365 333.87C265.084 332.578 266.07 331.584 267.322 330.887C268.595 330.19 270.012 329.842 271.573 329.842C273.688 329.842 275.341 330.508 276.531 331.84V323.815H281.336ZM272.404 342.941C273.616 342.941 274.622 342.531 275.423 341.711C276.223 340.871 276.624 339.753 276.624 338.359C276.624 336.965 276.223 335.858 275.423 335.038C274.622 334.198 273.616 333.778 272.404 333.778C271.172 333.778 270.156 334.198 269.355 335.038C268.554 335.858 268.154 336.965 268.154 338.359C268.154 339.753 268.554 340.871 269.355 341.711C270.156 342.531 271.172 342.941 272.404 342.941Z" fill="black"/>
<path d="M302.6 330.088V346.631H298.011V344.725C296.82 346.16 295.095 346.877 292.836 346.877C291.276 346.877 289.859 346.529 288.586 345.832C287.333 345.135 286.348 344.14 285.629 342.849C284.911 341.557 284.551 340.061 284.551 338.359C284.551 336.658 284.911 335.161 285.629 333.87C286.348 332.578 287.333 331.584 288.586 330.887C289.859 330.19 291.276 329.842 292.836 329.842C294.951 329.842 296.604 330.508 297.795 331.84V330.088H302.6ZM293.668 342.941C294.879 342.941 295.886 342.531 296.686 341.711C297.487 340.871 297.888 339.753 297.888 338.359C297.888 336.965 297.487 335.858 296.686 335.038C295.886 334.198 294.879 333.778 293.668 333.778C292.436 333.778 291.42 334.198 290.619 335.038C289.818 335.858 289.418 336.965 289.418 338.359C289.418 339.753 289.818 340.871 290.619 341.711C291.42 342.531 292.436 342.941 293.668 342.941Z" fill="black"/>
<path d="M317.028 345.832C316.555 346.18 315.97 346.447 315.272 346.631C314.594 346.795 313.886 346.877 313.147 346.877C311.155 346.877 309.625 346.375 308.558 345.37C307.49 344.366 306.956 342.89 306.956 340.942V326.429H311.761V330.457H315.857V334.147H311.761V340.881C311.761 341.578 311.935 342.121 312.284 342.511C312.634 342.88 313.137 343.064 313.794 343.064C314.533 343.064 315.19 342.859 315.765 342.449L317.028 345.832Z" fill="black"/>
<path d="M319.741 330.088H324.546V346.631H319.741V330.088ZM322.144 327.782C321.261 327.782 320.542 327.525 319.988 327.013C319.433 326.5 319.156 325.865 319.156 325.106C319.156 324.348 319.433 323.712 319.988 323.2C320.542 322.687 321.261 322.431 322.144 322.431C323.027 322.431 323.745 322.677 324.3 323.169C324.854 323.661 325.131 324.276 325.131 325.014C325.131 325.814 324.854 326.48 324.3 327.013C323.745 327.525 323.027 327.782 322.144 327.782Z" fill="black"/>
<path d="M336.89 346.877C335.145 346.877 333.574 346.518 332.178 345.801C330.802 345.063 329.724 344.048 328.944 342.757C328.164 341.465 327.773 339.999 327.773 338.359C327.773 336.719 328.164 335.254 328.944 333.962C329.724 332.671 330.802 331.666 332.178 330.949C333.574 330.211 335.145 329.842 336.89 329.842C338.636 329.842 340.196 330.211 341.572 330.949C342.948 331.666 344.026 332.671 344.806 333.962C345.586 335.254 345.976 336.719 345.976 338.359C345.976 339.999 345.586 341.465 344.806 342.757C344.026 344.048 342.948 345.063 341.572 345.801C340.196 346.518 338.636 346.877 336.89 346.877ZM336.89 342.941C338.122 342.941 339.128 342.531 339.909 341.711C340.709 340.871 341.11 339.753 341.11 338.359C341.11 336.965 340.709 335.858 339.909 335.038C339.128 334.198 338.122 333.778 336.89 333.778C335.658 333.778 334.642 334.198 333.841 335.038C333.04 335.858 332.64 336.965 332.64 338.359C332.64 339.753 333.04 340.871 333.841 341.711C334.642 342.531 335.658 342.941 336.89 342.941Z" fill="black"/>
<path d="M359.26 329.842C361.313 329.842 362.966 330.457 364.218 331.687C365.491 332.917 366.128 334.741 366.128 337.16V346.631H361.323V337.898C361.323 336.586 361.036 335.612 360.461 334.977C359.886 334.321 359.054 333.993 357.966 333.993C356.754 333.993 355.789 334.372 355.071 335.131C354.352 335.869 353.993 336.976 353.993 338.452V346.631H349.188V330.088H353.777V332.025C354.414 331.328 355.204 330.795 356.149 330.426C357.093 330.037 358.13 329.842 359.26 329.842Z" fill="black"/>
</svg>
